<svg data-name="Layer 1" xmlns="http://www.w3.org/2000/svg" viewBox="0 0 24 24"><path d="M19 22.05L5 22a3 3 0 0 1-3-3V5a3 3 0 0 1 3-3h14a3 3 0 0 1 3 3v14a3 3 0 0 1-3 3.05zM5.05 4a1 1 0 0 0-1 1L4 19a1 1 0 0 0 1 1h14a1 1 0 0 0 1-1V5a1 1 0 0 0-1-1H5z"/><path d="M18.22 18a1 1 0 0 1-.8-.4l-2.57-3.44-2.59 3.43a1 1 0 0 1-.72.4 1 1 0 0 1-.78-.29l-2.1-2.11-2.11 2.1a1 1 0 0 1-1.42 0 1 1 0 0 1 0-1.41L8 13.45a1 1 0 0 1 1.42 0l2 2 2.69-3.57a1 1 0 0 1 .8-.4 1 1 0 0 1 .8.4l3.29 4.5a1 1 0 0 1-.21 1.4.94.94 0 0 1-.57.22zM8 10a2 2 0 1 1 0-4 2 2 0 0 1 2 2 2 2 0 0 1-2 2zm0-2z"/></svg>