<svg width="50" height="74" viewBox="0 0 50 74" fill="none" xmlns="http://www.w3.org/2000/svg">
<rect x="1" y="1" width="48" height="72" rx="4" fill="white" stroke="#8D9096"/>
<line x1="9" y1="35.5" x2="42" y2="35.5" stroke="#BABEC5" stroke-width="3"/>
<line x1="9" y1="43.5" x2="42" y2="43.5" stroke="#BABEC5" stroke-width="3"/>
<line x1="9" y1="51.5" x2="42" y2="51.5" stroke="#BABEC5" stroke-width="3"/>
<line x1="9" y1="59.5" x2="42" y2="59.5" stroke="#BABEC5" stroke-width="3"/>
<rect width="18" height="35" transform="translate(43 9) rotate(90)" fill="white"/>
<path d="M33.5002 10.5C31.9344 10.5 30.4038 10.9399 29.1019 11.764C27.8 12.5881 26.7853 13.7594 26.1861 15.1299C25.5869 16.5003 25.4301 18.0083 25.7356 19.4632C26.0411 20.918 26.7951 22.2544 27.9022 23.3033C29.0094 24.3522 30.42 25.0665 31.9557 25.3559C33.4914 25.6453 35.0832 25.4968 36.5297 24.9291C37.9763 24.3614 39.2127 23.4001 40.0826 22.1668C40.9525 20.9334 41.4168 19.4834 41.4168 18C41.4145 16.0115 40.5797 14.1052 39.0955 12.6991C37.6114 11.2931 35.5991 10.5022 33.5002 10.5ZM30.3398 23.1915V22.9845C30.3402 22.5205 30.5347 22.0756 30.8805 21.7471C31.2264 21.4187 31.6955 21.2333 32.1852 21.2318C32.3952 21.2318 32.5965 21.1527 32.745 21.0121C32.8935 20.8714 32.9769 20.6807 32.9769 20.4818V20.145C32.9774 20.0128 32.9411 19.8829 32.8716 19.7683C32.8021 19.6537 32.7019 19.5586 32.581 19.4925C32.302 19.3393 32.0707 19.119 31.9104 18.8539C31.7501 18.5888 31.6666 18.2883 31.6682 17.9827V16.7303C31.6693 16.2705 31.8609 15.8296 32.2018 15.5025C32.5505 15.1731 33.0221 14.9872 33.5144 14.985C33.7566 14.9853 33.9965 15.0308 34.2201 15.1189C34.4438 15.207 34.647 15.3359 34.818 15.4984C34.9891 15.6609 35.1247 15.8537 35.2171 16.0658C35.3095 16.278 35.3569 16.5053 35.3566 16.7347V17.9872C35.3577 18.4455 35.1693 18.886 34.8317 19.2143C34.7153 19.3218 34.5853 19.4153 34.4446 19.4925C34.3218 19.5576 34.2195 19.6524 34.1483 19.7674C34.077 19.8823 34.0394 20.0132 34.0393 20.1465V20.484C34.0393 20.6829 34.1227 20.8737 34.2712 21.0143C34.4196 21.155 34.621 21.234 34.831 21.234C35.3211 21.2362 35.7903 21.4225 36.1355 21.7521C36.4808 22.0817 36.6738 22.5277 36.6724 22.992V23.1825C35.712 23.7152 34.6195 23.9965 33.5067 23.9977C32.3938 23.9989 31.3006 23.7199 30.339 23.1893L30.3398 23.1915ZM38.11 22.101C37.9569 21.5711 37.6634 21.087 37.2574 20.6947C36.9544 20.405 36.5967 20.1718 36.2029 20.007C36.6823 19.4332 36.9429 18.7228 36.9423 17.991V16.7385C36.9431 16.3119 36.8551 15.8894 36.6834 15.4951C36.5116 15.1008 36.2596 14.7424 35.9416 14.4404C35.6237 14.1384 35.246 13.8987 34.8302 13.735C34.4144 13.5713 33.9686 13.4869 33.5184 13.4865C32.6096 13.4857 31.7377 13.8269 31.0944 14.4351C30.4511 15.0432 30.0891 15.8685 30.0881 16.7295V17.9813C30.0868 18.7136 30.3462 19.4249 30.8243 20.0002C30.3587 20.1936 29.9441 20.4821 29.6101 20.8452C29.2761 21.2083 29.0311 21.6369 28.8927 22.1002C28.0446 21.2476 27.4786 20.1784 27.2645 19.0246C27.0504 17.8708 27.1974 16.6829 27.6876 15.6074C28.1777 14.5318 28.9895 13.6157 30.0228 12.9721C31.056 12.3285 32.2656 11.9856 33.5021 11.9856C34.7387 11.9856 35.9483 12.3285 36.9815 12.9721C38.0148 13.6157 38.8266 14.5318 39.3167 15.6074C39.8069 16.6829 39.9539 17.8708 39.7398 19.0246C39.5256 20.1784 38.9596 21.2476 38.1116 22.1002L38.11 22.101Z" fill="#BABEC5"/>
<path d="M21.6668 16.6664C21.932 16.6664 22.1864 16.5611 22.3739 16.3735C22.5615 16.186 22.6668 15.9316 22.6668 15.6664V14.2164C22.6669 14.0229 22.6107 13.8336 22.5053 13.6714C22.3999 13.5091 22.2496 13.381 22.0728 13.3024L16.4062 10.7831C16.2785 10.7265 16.1405 10.6973 16.0008 10.6973C15.8612 10.6973 15.7231 10.7265 15.5955 10.7831L9.92883 13.3011C9.75155 13.3795 9.6009 13.5078 9.49521 13.6703C9.38951 13.8328 9.33333 14.0226 9.3335 14.2164V15.6664C9.3335 15.9316 9.43885 16.186 9.62639 16.3735C9.81393 16.5611 10.0683 16.6664 10.3335 16.6664H10.6668V21.3331H10.3335C10.0683 21.3331 9.81393 21.4385 9.62639 21.626C9.43885 21.8135 9.3335 22.0679 9.3335 22.3331V23.6664C9.3335 23.9316 9.43885 24.186 9.62639 24.3735C9.81393 24.5611 10.0683 24.6664 10.3335 24.6664H21.6668C21.932 24.6664 22.1864 24.5611 22.3739 24.3735C22.5615 24.186 22.6668 23.9316 22.6668 23.6664V22.3331C22.6668 22.0679 22.5615 21.8135 22.3739 21.626C22.1864 21.4385 21.932 21.3331 21.6668 21.3331H21.3335V16.6664H21.6668ZM10.6668 14.4331L16.0002 12.0624L21.3335 14.4331V15.3331H10.6668V14.4331ZM14.0002 21.3331V16.6664H18.0002V21.3331H14.0002ZM12.0002 16.6664H12.6668V21.3331H12.0002V16.6664ZM21.3335 23.3331H10.6668V22.6664H21.3335V23.3331ZM20.0002 21.3331H19.3335V16.6664H20.0002V21.3331Z" fill="#BABEC5"/>
<path d="M16.0002 14.6663C16.3684 14.6663 16.6668 14.3679 16.6668 13.9997C16.6668 13.6315 16.3684 13.333 16.0002 13.333C15.632 13.333 15.3335 13.6315 15.3335 13.9997C15.3335 14.3679 15.632 14.6663 16.0002 14.6663Z" fill="#BABEC5"/>
</svg>
