<svg data-name="Layer 1" xmlns="http://www.w3.org/2000/svg" viewBox="0 0 24 24"><path d="M12 22a1 1 0 0 1-.86-.49L9.07 18H6.61A4.54 4.54 0 0 1 2 13.54v-7A4.53 4.53 0 0 1 6.61 2h10.86A4.53 4.53 0 0 1 22 6.54v7A4.54 4.54 0 0 1 17.47 18H15l-2.11 3.51A1 1 0 0 1 12 22zM6.61 4A2.54 2.54 0 0 0 4 6.54v7A2.54 2.54 0 0 0 6.61 16h3a1 1 0 0 1 .85.48L12 19.09l1.54-2.57a1 1 0 0 1 .86-.48h3a2.55 2.55 0 0 0 2.6-2.5v-7A2.54 2.54 0 0 0 17.47 4z"/><circle cx="8.04" cy="10.04" r="1"/><circle cx="12.04" cy="10.04" r="1"/><circle cx="16.04" cy="10.04" r="1"/></svg>